# xmcd
#
# Track frame offsets: 
#        150
#        18618
#        33185
#        52278
#        72789
#        91256
#        108940
#        121928
#        142796
#        162342
#        180916
#
# Disc length: 2703 seconds
#
# Revision: 1
# Processed by: cddbd v1.5.2PL0 Copyright (c) Steve Scherf et al.
# Submitted via: ExactAudioCopyFreeDBPlugin 1.0
#
DISCID=870a8d0b
DTITLE=T. LOVE - Old is Gold - CD2
DYEAR=2012
DGENRE=Rock
TTITLE0=Lucy Phere
TTITLE1=New York
TTITLE2=Ostatni taki sklep
TTITLE3=2005
TTITLE4=Moja kobieta
TTITLE5=Country Rebel
TTITLE6=Skomplikowany (Nowy Świat)
TTITLE7=Orwell or Not Well
TTITLE8=Modliitwa
TTITLE9=Henry Kadzidło
TTITLE10=Jeśli boga nie ma tu
EXTD=
EXTT0=
EXTT1=
EXTT2=
EXTT3=
EXTT4=
EXTT5=
EXTT6=
EXTT7=
EXTT8=
EXTT9=
EXTT10=
PLAYORDER=
